<svg xmlns="http://www.w3.org/2000/svg" xmlns:xlink="http://www.w3.org/1999/xlink" style="isolation:isolate" viewBox="0 0 20 20" version="1.1" shape-rendering="crispEdges"><path d="M8 15v1H4v1H3v3h14v-3h-1v-1h-4v-1h3v-1h1v-1h1v-3h1V7h-1V4h-1V3h-1V2H5v1H4v1H3v3H2v3h1v3h1v1h1v1h3z" fill="#FFDBAC"/><path d="M5 15v-1H4v-1H3v-3H2V7h1V4h1V3h1V2h10v1h1v1h1v3h1v3h-1v3h-1v1h-1v1H5z" fill="#FFF" fill-opacity=".1"/><path d="M5 7h3v3H5V7zm7 0h3v3h-3V7z" fill="#FFF"/><path d="M6 7h2v2H6V7zm7 0h2v2h-2V7z" fill="#5b7c8b"/><path d="M6 7v1h1v1h1V8H7V7H6zm7 0v1h1v1h1V8h-1V7h-1z" fill="#FFF" fill-opacity=".4"/><path d="M7 7v1h1V7H7zm7 0h1v1h-1V7z" fill="#FFF" fill-opacity=".7"/><path d="M6 5h1v1h1v1H5V6h1V5zm7 0h1v1h1v1h-3V6h1V5z" fill-rule="evenodd" fill="#784632"/><path d="M8 13h3v1H8v-1z" fill="#e6baa8"/><path d="M4 8H3V7h14v1h-1v2h-5V8H9v2H4V8zm1 0h3v1H5V8zm7 0h3v1h-3V8z" fill-rule="evenodd" fill="#43677d"/><path d="M5 8h3v1H5V8zm7 0h3v1h-3V8z" fill-rule="evenodd" fill="#FFF" fill-opacity=".2"/><path d="M7 8v1h1V8H7zm7 0v1h1V8h-1z" fill-rule="evenodd" fill="#FFF" fill-opacity=".2"/><path d="M3 7v1h1V7H3zm13 0v1h1V7h-1zM9 7v1h2V7H9z" fill-rule="evenodd" fill="#FFF" fill-opacity=".2"/><path d="M3 20v-3h1v-1h12v1h1v3H3z" fill="#6497b1"/><path d="M8 16H4v1H3v3h14v-3h-1v-1h-4v1h1v1h-1v1h-1v-1H9v1H8v-1H7v-1h1v-1z" fill="#FFF" fill-opacity=".2"/><path d="M9 16v1h2v-1H9z" fill="#FFF"/><path d="M5 2h10v1h1v1h1v3h-1V6h-1V5h-1V4h-4v1H8v1H7v1H4V6H3V4h1V3h1V2z" fill="#91553d"/></svg>